<svg xmlns="http://www.w3.org/2000/svg" viewBox="0 0 256 256"><g><path d="M46.834 105.989c0-20.815 7.895-41.75 23.805-57.78s36.606-23.805 57.301-23.805c20.696 0 41.51 7.895 57.301 23.805 15.79 15.91 23.806 36.845 23.806 57.78 0 18.422-6.22 36.725-18.542 51.798-7.058-4.546-14.595-8.374-22.37-11.245-13.04-4.905-26.677-7.297-40.314-7.297-13.757 0-27.395 2.392-40.314 7.297-7.776 2.871-15.313 6.7-22.37 11.245-12.083-14.953-18.303-33.376-18.303-51.798M127.94 0C101.024 0 73.99 10.288 53.413 30.983 32.837 51.68 22.55 78.833 22.55 105.99c0 23.805 7.895 47.611 23.805 67.11 2.153 2.632 4.546 5.383 7.058 7.895l9.092 8.972.478-.478c6.22-6.22 13.16-11.245 20.337-15.312 13.757-7.656 29.188-11.484 44.74-11.484 15.551 0 30.863 3.828 44.74 11.484 7.297 4.067 14.116 9.091 20.336 15.312l.479.478 8.972-9.091c2.512-2.512 4.905-5.144 7.058-7.896 15.79-19.499 23.805-43.185 23.805-67.11 0-27.155-10.287-54.31-30.863-75.005C182.01 10.407 154.976 0 127.94 0"/><path d="M127.94 186.976c-17.465 0-35.05 6.818-48.448 20.217l14.953 14.953c9.211-9.331 21.413-13.996 33.615-13.996 12.082 0 24.284 4.665 33.615 13.996l14.953-14.953c-13.518-13.399-30.983-20.217-48.688-20.217m0 44.62c-6.22 0-12.44 2.393-17.106 7.178L127.94 256l17.107-17.226c-4.666-4.785-10.767-7.178-17.107-7.178"/></g></svg>